<!-- Generated by IcoMoon.io -->
<svg version="1.1" xmlns="http://www.w3.org/2000/svg" width="32" height="32" viewBox="0 0 32 32">
<title>Route</title>
<path d="M9.333 2.857c-1.052 0-1.905 0.853-1.905 1.905s0.853 1.905 1.905 1.905c1.052 0 1.905-0.853 1.905-1.905s-0.853-1.905-1.905-1.905zM5.524 4.762c0-2.104 1.706-3.81 3.81-3.81s3.809 1.706 3.809 3.81-1.706 3.81-3.809 3.81c-2.104 0-3.81-1.706-3.81-3.81z"></path>
<path d="M22.667 16.191c-1.052 0-1.905 0.853-1.905 1.905s0.853 1.905 1.905 1.905c1.052 0 1.905-0.853 1.905-1.905s-0.853-1.905-1.905-1.905zM18.857 18.095c0-2.104 1.706-3.809 3.809-3.809s3.81 1.706 3.81 3.809c0 2.104-1.706 3.81-3.81 3.81s-3.809-1.706-3.809-3.81z"></path>
<path d="M14.095 4.762c0-0.526 0.426-0.952 0.952-0.952h6c2.95 0 4.014 3.86 1.419 5.306l-11.052 6.288c-0.828 0.46-0.558 1.739 0.49 1.739h5.048c0.526 0 0.952 0.426 0.952 0.952s-0.426 0.952-0.952 0.952h-5.048c-2.95 0-4.014-3.86-1.419-5.306l11.052-6.288c0.828-0.46 0.558-1.739-0.49-1.739h-6c-0.526 0-0.952-0.426-0.952-0.952z"></path>
</svg>
